<svg width="20" height="5" viewBox="0 0 20 5" fill="none" xmlns="http://www.w3.org/2000/svg">
<path d="M19.3337 2.5C19.3337 3.14166 19.1052 3.69097 18.6482 4.14791C18.1913 4.60486 17.642 4.83333 17.0003 4.83333C16.3587 4.83333 15.8094 4.60486 15.3524 4.14791C14.8955 3.69097 14.667 3.14166 14.667 2.5C14.667 1.85833 14.8955 1.30902 15.3524 0.852079C15.8094 0.395134 16.3587 0.166662 17.0003 0.166662C17.642 0.166662 18.1913 0.395134 18.6482 0.852079C19.1052 1.30902 19.3337 1.85833 19.3337 2.5ZM12.3337 2.5C12.3337 3.14166 12.1052 3.69097 11.6482 4.14791C11.1913 4.60486 10.642 4.83333 10.0003 4.83333C9.35866 4.83333 8.80935 4.60486 8.35241 4.14791C7.89546 3.69097 7.66699 3.14166 7.66699 2.5C7.66699 1.85833 7.89546 1.30902 8.35241 0.852079C8.80935 0.395134 9.35866 0.166662 10.0003 0.166662C10.642 0.166662 11.1913 0.395134 11.6482 0.852079C12.1052 1.30902 12.3337 1.85833 12.3337 2.5ZM5.33366 2.5C5.33366 3.14166 5.10519 3.69097 4.64824 4.14791C4.1913 4.60486 3.64199 4.83333 3.00033 4.83333C2.35866 4.83333 1.80935 4.60486 1.35241 4.14791C0.895464 3.69097 0.666992 3.14166 0.666992 2.5C0.666992 1.85833 0.895464 1.30902 1.35241 0.852079C1.80935 0.395134 2.35866 0.166662 3.00033 0.166662C3.64199 0.166662 4.1913 0.395134 4.64824 0.852079C5.10519 1.30902 5.33366 1.85833 5.33366 2.5Z" fill="#515151"/>
<path d="M19.3337 2.5C19.3337 3.14166 19.1052 3.69097 18.6482 4.14791C18.1913 4.60486 17.642 4.83333 17.0003 4.83333C16.3587 4.83333 15.8094 4.60486 15.3524 4.14791C14.8955 3.69097 14.667 3.14166 14.667 2.5C14.667 1.85833 14.8955 1.30902 15.3524 0.852079C15.8094 0.395134 16.3587 0.166662 17.0003 0.166662C17.642 0.166662 18.1913 0.395134 18.6482 0.852079C19.1052 1.30902 19.3337 1.85833 19.3337 2.5ZM12.3337 2.5C12.3337 3.14166 12.1052 3.69097 11.6482 4.14791C11.1913 4.60486 10.642 4.83333 10.0003 4.83333C9.35866 4.83333 8.80935 4.60486 8.35241 4.14791C7.89546 3.69097 7.66699 3.14166 7.66699 2.5C7.66699 1.85833 7.89546 1.30902 8.35241 0.852079C8.80935 0.395134 9.35866 0.166662 10.0003 0.166662C10.642 0.166662 11.1913 0.395134 11.6482 0.852079C12.1052 1.30902 12.3337 1.85833 12.3337 2.5ZM5.33366 2.5C5.33366 3.14166 5.10519 3.69097 4.64824 4.14791C4.1913 4.60486 3.64199 4.83333 3.00033 4.83333C2.35866 4.83333 1.80935 4.60486 1.35241 4.14791C0.895464 3.69097 0.666992 3.14166 0.666992 2.5C0.666992 1.85833 0.895464 1.30902 1.35241 0.852079C1.80935 0.395134 2.35866 0.166662 3.00033 0.166662C3.64199 0.166662 4.1913 0.395134 4.64824 0.852079C5.10519 1.30902 5.33366 1.85833 5.33366 2.5Z" fill="#515151"/>
<path d="M19.3337 2.5C19.3337 3.14166 19.1052 3.69097 18.6482 4.14791C18.1913 4.60486 17.642 4.83333 17.0003 4.83333C16.3587 4.83333 15.8094 4.60486 15.3524 4.14791C14.8955 3.69097 14.667 3.14166 14.667 2.5C14.667 1.85833 14.8955 1.30902 15.3524 0.852079C15.8094 0.395134 16.3587 0.166662 17.0003 0.166662C17.642 0.166662 18.1913 0.395134 18.6482 0.852079C19.1052 1.30902 19.3337 1.85833 19.3337 2.5ZM12.3337 2.5C12.3337 3.14166 12.1052 3.69097 11.6482 4.14791C11.1913 4.60486 10.642 4.83333 10.0003 4.83333C9.35866 4.83333 8.80935 4.60486 8.35241 4.14791C7.89546 3.69097 7.66699 3.14166 7.66699 2.5C7.66699 1.85833 7.89546 1.30902 8.35241 0.852079C8.80935 0.395134 9.35866 0.166662 10.0003 0.166662C10.642 0.166662 11.1913 0.395134 11.6482 0.852079C12.1052 1.30902 12.3337 1.85833 12.3337 2.5ZM5.33366 2.5C5.33366 3.14166 5.10519 3.69097 4.64824 4.14791C4.1913 4.60486 3.64199 4.83333 3.00033 4.83333C2.35866 4.83333 1.80935 4.60486 1.35241 4.14791C0.895464 3.69097 0.666992 3.14166 0.666992 2.5C0.666992 1.85833 0.895464 1.30902 1.35241 0.852079C1.80935 0.395134 2.35866 0.166662 3.00033 0.166662C3.64199 0.166662 4.1913 0.395134 4.64824 0.852079C5.10519 1.30902 5.33366 1.85833 5.33366 2.5Z" fill="#515151"/>
<path d="M19.3337 2.5C19.3337 3.14166 19.1052 3.69097 18.6482 4.14791C18.1913 4.60486 17.642 4.83333 17.0003 4.83333C16.3587 4.83333 15.8094 4.60486 15.3524 4.14791C14.8955 3.69097 14.667 3.14166 14.667 2.5C14.667 1.85833 14.8955 1.30902 15.3524 0.852079C15.8094 0.395134 16.3587 0.166662 17.0003 0.166662C17.642 0.166662 18.1913 0.395134 18.6482 0.852079C19.1052 1.30902 19.3337 1.85833 19.3337 2.5ZM12.3337 2.5C12.3337 3.14166 12.1052 3.69097 11.6482 4.14791C11.1913 4.60486 10.642 4.83333 10.0003 4.83333C9.35866 4.83333 8.80935 4.60486 8.35241 4.14791C7.89546 3.69097 7.66699 3.14166 7.66699 2.5C7.66699 1.85833 7.89546 1.30902 8.35241 0.852079C8.80935 0.395134 9.35866 0.166662 10.0003 0.166662C10.642 0.166662 11.1913 0.395134 11.6482 0.852079C12.1052 1.30902 12.3337 1.85833 12.3337 2.5ZM5.33366 2.5C5.33366 3.14166 5.10519 3.69097 4.64824 4.14791C4.1913 4.60486 3.64199 4.83333 3.00033 4.83333C2.35866 4.83333 1.80935 4.60486 1.35241 4.14791C0.895464 3.69097 0.666992 3.14166 0.666992 2.5C0.666992 1.85833 0.895464 1.30902 1.35241 0.852079C1.80935 0.395134 2.35866 0.166662 3.00033 0.166662C3.64199 0.166662 4.1913 0.395134 4.64824 0.852079C5.10519 1.30902 5.33366 1.85833 5.33366 2.5Z" fill="#515151"/>
<path d="M19.3337 2.5C19.3337 3.14166 19.1052 3.69097 18.6482 4.14791C18.1913 4.60486 17.642 4.83333 17.0003 4.83333C16.3587 4.83333 15.8094 4.60486 15.3524 4.14791C14.8955 3.69097 14.667 3.14166 14.667 2.5C14.667 1.85833 14.8955 1.30902 15.3524 0.852079C15.8094 0.395134 16.3587 0.166662 17.0003 0.166662C17.642 0.166662 18.1913 0.395134 18.6482 0.852079C19.1052 1.30902 19.3337 1.85833 19.3337 2.5ZM12.3337 2.5C12.3337 3.14166 12.1052 3.69097 11.6482 4.14791C11.1913 4.60486 10.642 4.83333 10.0003 4.83333C9.35866 4.83333 8.80935 4.60486 8.35241 4.14791C7.89546 3.69097 7.66699 3.14166 7.66699 2.5C7.66699 1.85833 7.89546 1.30902 8.35241 0.852079C8.80935 0.395134 9.35866 0.166662 10.0003 0.166662C10.642 0.166662 11.1913 0.395134 11.6482 0.852079C12.1052 1.30902 12.3337 1.85833 12.3337 2.5ZM5.33366 2.5C5.33366 3.14166 5.10519 3.69097 4.64824 4.14791C4.1913 4.60486 3.64199 4.83333 3.00033 4.83333C2.35866 4.83333 1.80935 4.60486 1.35241 4.14791C0.895464 3.69097 0.666992 3.14166 0.666992 2.5C0.666992 1.85833 0.895464 1.30902 1.35241 0.852079C1.80935 0.395134 2.35866 0.166662 3.00033 0.166662C3.64199 0.166662 4.1913 0.395134 4.64824 0.852079C5.10519 1.30902 5.33366 1.85833 5.33366 2.5Z" fill="#515151"/>
<path d="M19.3337 2.5C19.3337 3.14166 19.1052 3.69097 18.6482 4.14791C18.1913 4.60486 17.642 4.83333 17.0003 4.83333C16.3587 4.83333 15.8094 4.60486 15.3524 4.14791C14.8955 3.69097 14.667 3.14166 14.667 2.5C14.667 1.85833 14.8955 1.30902 15.3524 0.852079C15.8094 0.395134 16.3587 0.166662 17.0003 0.166662C17.642 0.166662 18.1913 0.395134 18.6482 0.852079C19.1052 1.30902 19.3337 1.85833 19.3337 2.5ZM12.3337 2.5C12.3337 3.14166 12.1052 3.69097 11.6482 4.14791C11.1913 4.60486 10.642 4.83333 10.0003 4.83333C9.35866 4.83333 8.80935 4.60486 8.35241 4.14791C7.89546 3.69097 7.66699 3.14166 7.66699 2.5C7.66699 1.85833 7.89546 1.30902 8.35241 0.852079C8.80935 0.395134 9.35866 0.166662 10.0003 0.166662C10.642 0.166662 11.1913 0.395134 11.6482 0.852079C12.1052 1.30902 12.3337 1.85833 12.3337 2.5ZM5.33366 2.5C5.33366 3.14166 5.10519 3.69097 4.64824 4.14791C4.1913 4.60486 3.64199 4.83333 3.00033 4.83333C2.35866 4.83333 1.80935 4.60486 1.35241 4.14791C0.895464 3.69097 0.666992 3.14166 0.666992 2.5C0.666992 1.85833 0.895464 1.30902 1.35241 0.852079C1.80935 0.395134 2.35866 0.166662 3.00033 0.166662C3.64199 0.166662 4.1913 0.395134 4.64824 0.852079C5.10519 1.30902 5.33366 1.85833 5.33366 2.5Z" fill="#515151"/>
<path d="M19.3337 2.5C19.3337 3.14166 19.1052 3.69097 18.6482 4.14791C18.1913 4.60486 17.642 4.83333 17.0003 4.83333C16.3587 4.83333 15.8094 4.60486 15.3524 4.14791C14.8955 3.69097 14.667 3.14166 14.667 2.5C14.667 1.85833 14.8955 1.30902 15.3524 0.852079C15.8094 0.395134 16.3587 0.166662 17.0003 0.166662C17.642 0.166662 18.1913 0.395134 18.6482 0.852079C19.1052 1.30902 19.3337 1.85833 19.3337 2.5ZM12.3337 2.5C12.3337 3.14166 12.1052 3.69097 11.6482 4.14791C11.1913 4.60486 10.642 4.83333 10.0003 4.83333C9.35866 4.83333 8.80935 4.60486 8.35241 4.14791C7.89546 3.69097 7.66699 3.14166 7.66699 2.5C7.66699 1.85833 7.89546 1.30902 8.35241 0.852079C8.80935 0.395134 9.35866 0.166662 10.0003 0.166662C10.642 0.166662 11.1913 0.395134 11.6482 0.852079C12.1052 1.30902 12.3337 1.85833 12.3337 2.5ZM5.33366 2.5C5.33366 3.14166 5.10519 3.69097 4.64824 4.14791C4.1913 4.60486 3.64199 4.83333 3.00033 4.83333C2.35866 4.83333 1.80935 4.60486 1.35241 4.14791C0.895464 3.69097 0.666992 3.14166 0.666992 2.5C0.666992 1.85833 0.895464 1.30902 1.35241 0.852079C1.80935 0.395134 2.35866 0.166662 3.00033 0.166662C3.64199 0.166662 4.1913 0.395134 4.64824 0.852079C5.10519 1.30902 5.33366 1.85833 5.33366 2.5Z" fill="#515151"/>
<path d="M19.3337 2.5C19.3337 3.14166 19.1052 3.69097 18.6482 4.14791C18.1913 4.60486 17.642 4.83333 17.0003 4.83333C16.3587 4.83333 15.8094 4.60486 15.3524 4.14791C14.8955 3.69097 14.667 3.14166 14.667 2.5C14.667 1.85833 14.8955 1.30902 15.3524 0.852079C15.8094 0.395134 16.3587 0.166662 17.0003 0.166662C17.642 0.166662 18.1913 0.395134 18.6482 0.852079C19.1052 1.30902 19.3337 1.85833 19.3337 2.5ZM12.3337 2.5C12.3337 3.14166 12.1052 3.69097 11.6482 4.14791C11.1913 4.60486 10.642 4.83333 10.0003 4.83333C9.35866 4.83333 8.80935 4.60486 8.35241 4.14791C7.89546 3.69097 7.66699 3.14166 7.66699 2.5C7.66699 1.85833 7.89546 1.30902 8.35241 0.852079C8.80935 0.395134 9.35866 0.166662 10.0003 0.166662C10.642 0.166662 11.1913 0.395134 11.6482 0.852079C12.1052 1.30902 12.3337 1.85833 12.3337 2.5ZM5.33366 2.5C5.33366 3.14166 5.10519 3.69097 4.64824 4.14791C4.1913 4.60486 3.64199 4.83333 3.00033 4.83333C2.35866 4.83333 1.80935 4.60486 1.35241 4.14791C0.895464 3.69097 0.666992 3.14166 0.666992 2.5C0.666992 1.85833 0.895464 1.30902 1.35241 0.852079C1.80935 0.395134 2.35866 0.166662 3.00033 0.166662C3.64199 0.166662 4.1913 0.395134 4.64824 0.852079C5.10519 1.30902 5.33366 1.85833 5.33366 2.5Z" fill="#515151"/>
</svg>
