<svg width="15" height="15" viewBox="0 0 15 15" fill="none" xmlns="http://www.w3.org/2000/svg">
<path d="M7.5 4.6875H8.4375M7.5 6.5625H8.4375M3.75 8.4375H8.4375M3.75 10.3125H8.4375M10.3125 4.6875H12.4219C12.81 4.6875 13.125 5.0025 13.125 5.39062V11.25C13.125 11.623 12.9768 11.9806 12.7131 12.2444C12.4494 12.5081 12.0917 12.6562 11.7188 12.6562M10.3125 4.6875V11.25C10.3125 11.623 10.4607 11.9806 10.7244 12.2444C10.9881 12.5081 11.3458 12.6562 11.7188 12.6562M10.3125 4.6875V3.04688C10.3125 2.65875 9.9975 2.34375 9.60938 2.34375H2.57812C2.19 2.34375 1.875 2.65875 1.875 3.04688V11.25C1.875 11.623 2.02316 11.9806 2.28688 12.2444C2.5506 12.5081 2.90829 12.6562 3.28125 12.6562H11.7188M3.75 4.6875H5.625V6.5625H3.75V4.6875Z" stroke="#6F6F6F" stroke-width="1.2" stroke-linecap="round" stroke-linejoin="round"/>
</svg>
