<svg width="15" height="15" viewBox="0 0 15 15" fill="none" xmlns="http://www.w3.org/2000/svg">
<path d="M9.84361 3.75C9.84361 4.3716 9.59668 4.96774 9.15714 5.40728C8.71761 5.84682 8.12146 6.09375 7.49986 6.09375C6.87826 6.09375 6.28212 5.84682 5.84258 5.40728C5.40304 4.96774 5.15611 4.3716 5.15611 3.75C5.15611 3.1284 5.40304 2.53226 5.84258 2.09272C6.28212 1.65318 6.87826 1.40625 7.49986 1.40625C8.12146 1.40625 8.71761 1.65318 9.15714 2.09272C9.59668 2.53226 9.84361 3.1284 9.84361 3.75ZM2.81299 12.5738C2.83307 11.344 3.3357 10.1714 4.21247 9.30878C5.08925 8.44621 6.26992 7.96279 7.49986 7.96279C8.72981 7.96279 9.91048 8.44621 10.7873 9.30878C11.664 10.1714 12.1667 11.344 12.1867 12.5738C10.7164 13.248 9.11745 13.5959 7.49986 13.5938C5.82736 13.5938 4.23986 13.2288 2.81299 12.5738Z" stroke="#6F6F6F" stroke-width="1.2" stroke-linecap="round" stroke-linejoin="round"/>
</svg>
