<svg width="15" height="15" viewBox="0 0 15 15" fill="none" xmlns="http://www.w3.org/2000/svg">
<path d="M5.15625 5.625V3.28125C5.15625 2.90829 5.30441 2.5506 5.56813 2.28688C5.83185 2.02316 6.18954 1.875 6.5625 1.875H10.3125C10.6855 1.875 11.0431 2.02316 11.3069 2.28688C11.5706 2.5506 11.7188 2.90829 11.7188 3.28125V11.7188C11.7187 12.0917 11.5706 12.4494 11.3069 12.7131C11.0431 12.9768 10.6855 13.125 10.3125 13.125H6.5625C6.18954 13.125 5.83185 12.9768 5.56813 12.7131C5.30441 12.4494 5.15625 12.0917 5.15625 11.7188V9.375M3.28125 9.375L1.40625 7.5M1.40625 7.5L3.28125 5.625M1.40625 7.5H9.375" stroke="#6F6F6F" stroke-width="1.2" stroke-linecap="round" stroke-linejoin="round"/>
</svg>
